<?xml version="1.0" standalone="no"?><!DOCTYPE svg PUBLIC "-//W3C//DTD SVG 1.1//EN" "http://www.w3.org/Graphics/SVG/1.1/DTD/svg11.dtd"><svg class="icon" width="200px" height="200.00px" viewBox="0 0 1024 1024" version="1.1" xmlns="http://www.w3.org/2000/svg"><path d="M512 512m-512 0a512 512 0 1 0 1024 0 512 512 0 1 0-1024 0Z" fill="#6083CB" /><path d="M636.672 360.064c-71.850667-66.346667-182.4-69.12-257.024-8.277333-74.624 60.757333-96.725333 168.533333-46.976 251.477333a193.706667 193.706667 0 0 0 196.224 96.725333 198.613333 198.613333 0 0 0 165.802667-143.701333c5.546667-22.144 27.648-33.194667 49.749333-27.648 22.101333 5.546667 33.152 27.648 27.605333 49.749333-44.202667 146.474667-196.181333 229.376-339.882666 187.904-146.474667-41.429333-232.149333-193.450667-190.72-339.925333a283.562667 283.562667 0 0 1 193.450666-193.450667c93.994667-27.605333 193.450667 0 262.570667 66.346667l52.48-52.48a21.504 21.504 0 0 1 22.101333-5.546667c2.773333 8.277333 8.32 13.824 8.32 22.101334v171.349333c0 11.050667-8.32 19.328-19.370666 19.328h-168.533334a23.253333 23.253333 0 0 1-19.370666-11.093333c-2.773333-5.504 0-16.554667 5.546666-22.058667l58.026667-60.8z m-132.693333 201.728c-30.378667 0-55.253333-24.874667-55.253334-58.026667 0-33.152 24.874667-58.026667 55.296-58.026666 30.378667 0 55.253333 24.874667 55.253334 58.026666 0 33.152-24.874667 58.026667-55.253334 58.026667z" fill="#FFFFFF" /></svg>