<?xml version="1.0" standalone="no"?><!DOCTYPE svg PUBLIC "-//W3C//DTD SVG 1.1//EN" "http://www.w3.org/Graphics/SVG/1.1/DTD/svg11.dtd"><svg class="icon" width="200px" height="192.12px" viewBox="0 0 1066 1024" version="1.1" xmlns="http://www.w3.org/2000/svg"><path d="M533.333333 512m-512 0a512 512 0 1 0 1024 0 512 512 0 1 0-1024 0Z" fill="#6083CB" /><path d="M290.517333 272.128l1.28-1.28A340.48 340.48 0 0 1 532.48 170.666667h1.109333a341.845333 341.845333 0 0 1 239.146667 98.304l1.493333 1.834666a338.218667 338.218667 0 0 1 99.84 240.853334c0 94.165333-38.016 179.413333-99.84 241.237333a341.376 341.376 0 0 1-240.64 99.754667h-1.109333a341.12 341.12 0 0 1-240.64-99.754667A339.797333 339.797333 0 0 1 192 511.658667c0-93.44 37.248-177.92 98.517333-239.530667z m268.928 526.933333a287.36 287.36 0 0 0 177.664-83.413333h0.213334-0.213334a288.512 288.512 0 0 0 84.565334-203.989333c0-79.658667-32.597333-151.509333-84.565334-203.989334l-1.28-1.109333a288.128 288.128 0 0 0-176.384-82.304v574.805333zM506.752 224.256a348.885333 348.885333 0 0 0-37.461333 5.973333l37.461333 37.589334v-43.52z m0 88.064L434.858667 240.298667a263.296 263.296 0 0 0-32.213334 14.08l104.106667 104.277333V312.32z m0 90.624L374.144 270.805333c-9.301333 5.973333-17.92 12.672-26.282667 19.754667l158.890667 158.933333v-46.506666z m0 91.221333l-182.186667-182.186666c-7.594667 7.978667-14.848 16.128-21.376 25.088l203.52 203.264v-46.165334z m0 90.624L285.44 363.52c-6.314667 9.642667-11.52 19.882667-16 30.506667l237.226667 237.141333v-46.378667z m0 90.666667l-249.6-249.045333c-3.669333 11.946667-6.698667 24.576-8.917333 37.248l258.517333 258.304v-46.506667z m-177.706667 40.192a285.312 285.312 0 0 0 102.058667 65.877333l-168.106667-167.850666c14.506667 38.528 37.205333 73.344 66.048 101.973333z m161.877334 81.536c5.205333 0.768 10.581333 1.28 15.786666 1.877333v-32.426666l-262.186666-262.229334v7.253334c0 14.336 0.938667 28.288 2.986666 42.069333l243.413334 243.456z" fill="#FFFFFF" /><path d="M768 704m-149.333333 0a149.333333 149.333333 0 1 0 298.666666 0 149.333333 149.333333 0 1 0-298.666666 0Z" fill="#FFFFFF" /><path d="M795.306667 628.864l-0.042667 53.76 53.845333 0.042667v51.2h-53.845333v53.802666h-51.2V733.866667h-53.802667V682.666667h53.802667v-53.802667h51.2z" fill="#6083CB" /></svg>