<?xml version="1.0" standalone="no"?><!DOCTYPE svg PUBLIC "-//W3C//DTD SVG 1.1//EN" "http://www.w3.org/Graphics/SVG/1.1/DTD/svg11.dtd"><svg class="icon" width="200px" height="186.35px" viewBox="0 0 1099 1024" version="1.1" xmlns="http://www.w3.org/2000/svg"><path d="M19.832185 511.999789a522.106592 507.433312 0 1 0 1044.213183 0 522.106592 507.433312 0 1 0-1044.213183 0Z" fill="#6083CB" /><path d="M549.719421 152.56786a359.431929 359.431929 0 1 1 0 718.863858 359.431929 359.431929 0 0 1 0-718.863858z m0 42.286109V258.283133a253.716656 253.716656 0 0 1 9.514375 507.264167l-9.514375 0.169144v63.429164a317.14582 317.14582 0 0 0 0-634.291639z m137.81043 280.906624H417.659902V562.74312h269.869949v-86.982527z" fill="#FFFFFF" /></svg>