<?xml version="1.0" standalone="no"?>
<!DOCTYPE svg PUBLIC "-//W3C//DTD SVG 1.1//EN" "http://www.w3.org/Graphics/SVG/1.1/DTD/svg11.dtd">
<svg id="edit" style="width: 200px; height: 200px; opacity: 1;" viewBox="0 0 1099 1024" version="1.1" xmlns="http://www.w3.org/2000/svg">
<path d="M19.832185 511.999789a522.106592 507.433312 0 1 0 1044.213183 0 522.106592 507.433312 0 1 0-1044.213183 0Z" />
<path d="M845.722186 723.430335a84.572219 84.572219 0 0 1-84.572219 84.572219h-422.861093a84.572219 84.572219 0 0 1-84.572218-84.572219V300.569242a84.572219 84.572219 0 0 1 84.572218-84.572219h422.861093a84.572219 84.572219 0 0 1 84.572219 84.572219v422.861093z m-21.143055-211.430546V300.569242a63.429164 63.429164 0 0 0-57.297678-63.133161L761.107681 237.140078h-211.430546V511.999789h-274.859711v211.430546a63.429164 63.429164 0 0 0 57.339965 63.133161l6.089199 0.296003 211.430547-0.084572v-274.817425h274.85971z" fill="#ffffff" />
</svg>
