<?xml version="1.0" standalone="no"?>
<!DOCTYPE svg PUBLIC "-//W3C//DTD SVG 1.1//EN" "http://www.w3.org/Graphics/SVG/1.1/DTD/svg11.dtd">
<svg id="move" style="width: 200px; height: 200px; opacity: 1;" viewBox="0 0 1099 1024" version="1.1" xmlns="http://www.w3.org/2000/svg">
<path d="M19.832185 511.999789a522.106592 507.433312 0 1 0 1044.213183 0 522.106592 507.433312 0 1 0-1044.213183 0Z" />
<path d="M728.251374 394.444405l0.718864 85.840802h-147.451663V332.87583l85.75623 0.592005-102.628387-102.543815a21.143055 21.143055 0 0 0-29.89628 0L432.206323 333.510121l85.840802-0.718864v147.451663H370.595462l0.592005-85.713943-102.543815 102.586101a21.143055 21.143055 0 0 0 0 29.896279L371.229754 629.555172l-0.718864-85.798515h147.451663v147.409377l-85.75623-0.592006 102.586101 102.543815a21.143055 21.143055 0 0 0 29.938566 0l102.543815-102.543815-85.840802 0.718864v-147.451663h147.409377l-0.592006 85.713943 102.543815-102.586101a21.143055 21.143055 0 0 0 0-29.896279L728.251374 394.444405z" fill="#FFFFFF" />
</svg>